<svg xmlns:xlink="http://www.w3.org/1999/xlink" xmlns="http://www.w3.org/2000/svg" class="css-ze2te4 css-qd6ojx" viewBox="0 0 58.33333333333334 63.33333333333334" width="110"  height="110" ><g transform="translate(-12.500000000000002, -10.000000000000002) scale(0.8333333333333335)" class="css-1e98oqk" fill="#FFFFFF"><g xmlns="http://www.w3.org/2000/svg" fill="#FFFFFF"><g fill="#FFFFFF"><g fill="#FFFFFF"><circle cx="67.7" cy="29.5" r="1.5" fill="#FFFFFF"></circle></g><g fill="#FFFFFF"><circle cx="77.3" cy="37.2" r="1.5" fill="#FFFFFF"></circle></g><g fill="#FFFFFF"><circle cx="83.5" cy="28" r="1.5" fill="#FFFFFF"></circle></g><g fill="#FFFFFF"><circle cx="71.1" cy="15.6" r="1.5" fill="#FFFFFF"></circle></g><g fill="#FFFFFF"><circle cx="16.5" cy="13.5" r="1.5" fill="#FFFFFF"></circle></g><g fill="#FFFFFF"><circle cx="56.1" cy="18.2" r="1.5" fill="#FFFFFF"></circle></g><g fill="#FFFFFF"><circle cx="19.5" cy="54.9" r="1.5" fill="#FFFFFF"></circle></g><g fill="#FFFFFF"><circle cx="47.1" cy="84" r="1.5" fill="#FFFFFF"></circle></g><g fill="#FFFFFF"><circle cx="26.8" cy="82.5" r="1.5" fill="#FFFFFF"></circle></g><g fill="#FFFFFF"><circle cx="17.6" cy="68.4" r="1.5" fill="#FFFFFF"></circle></g><g fill="#FFFFFF"><circle cx="39.5" cy="76.8" r="1.5" fill="#FFFFFF"></circle></g><g fill="#FFFFFF"><circle cx="83.5" cy="86.5" r="1.5" fill="#FFFFFF"></circle></g><path d="M33.6,22.8c-3.1,0-5.7,1-7.8,3c-2.1,2-3.1,4.5-3.2,7.5c-0.1,7.3,5.9,17.5,16.5,28.1c7.9,7.9,19.2,17.2,28.1,16.9    c3-0.1,5.5-1.3,7.5-3.6c7-7.9,2.5-19.9-13.3-35.7C50.7,28.4,41,22.8,33.6,22.8z M69.1,69c-1.6,1.9-3.7,2.9-6.2,2.9    c-0.1,0-0.2,0-0.3,0c-6.9,0-15.3-6.9-21.1-12.8C33.3,51,28.9,43.4,28.9,37.7c0-2.5,0.9-4.6,2.6-6.2c5.7-5.4,16-1.7,27.6,9.9    C71.2,53.4,74.6,62.7,69.1,69z" fill="#FFFFFF"></path><path d="M38,30c-2.3,0-4.2,0.7-5.7,2.2c-1.5,1.4-2.3,3.3-2.3,5.5c-0.1,5.4,4.4,12.9,12.2,20.7c5.8,5.8,14.1,12.7,20.7,12.5    c2.2-0.1,4-0.9,5.5-2.6c5.1-5.8,1.8-14.6-9.8-26.2C50.6,34.2,43.4,30,38,30z M62.2,62.1c-1.1,1.2-2.4,1.9-4,1.9    c-0.1,0-0.1,0-0.2,0c-4.4,0-9.7-4.4-13.4-8.1c-5.1-5.1-7.9-10-7.9-13.6c0-1.6,0.6-3,1.7-4c3.6-3.5,10.2-1.2,17.6,6.2    C63.6,52.2,65.7,58.1,62.2,62.1z" fill="#FFFFFF"></path><path d="M29.7,16.2c-3.8,0-7.1,1.2-9.8,3.8c-2.6,2.5-3.9,5.6-3.9,9.4c-0.1,9.1,7.3,21.7,20.4,34.8c9.7,9.7,23.7,21.3,34.8,20.9    c3.7-0.1,6.9-1.6,9.4-4.5c8.6-9.8,3.1-24.7-16.4-44.2C50.9,23.1,38.8,16.2,29.7,16.2z M75.5,75.4c-2.2,2.5-5,3.8-8.2,3.9    c-0.1,0-0.3,0-0.4,0c-9.2,0-20.5-9.3-28.4-17.2C27.5,51.2,21.5,41,21.6,33.3c0-3.3,1.2-6.1,3.5-8.3c7.6-7.3,21.4-2.3,37.1,13.3    C78.3,54.6,82.8,67.1,75.5,75.4z" fill="#FFFFFF"></path><path d="M42.5,37.7c-1.4,0-2.5,0.4-3.5,1.3c-0.9,0.9-1.4,2-1.4,3.3c0,3.3,2.7,8,7.6,12.9c5.2,5.2,9.6,7.9,12.9,7.8    c1.3,0,2.4-0.6,3.3-1.6c3.1-3.6,1-9-6.2-16.2C50.3,40.3,45.9,37.7,42.5,37.7z" fill="#FFFFFF"></path></g></g></g></svg>