<svg xmlns:xlink="http://www.w3.org/1999/xlink" xmlns="http://www.w3.org/2000/svg" viewBox="0 0 369.6666666666667 63.33333333333334" preserveAspectRatio="xMidYMid meet" class="css-88gl6m" id="gfabagbd" width="369.6666666666667"  height="63.33333333333334" ><defs id="SvgjsDefs9075"></defs><g id="SvgjsG9076" featurekey="uHI19F-0" transform="matrix(0.8333333333333335,0,0,0.8333333333333335,-3.5000000000000018,-10.000000000000002)" fill="#FFFFFF"><g xmlns="http://www.w3.org/2000/svg" fill="#FFFFFF"><g fill="#FFFFFF"><g fill="#FFFFFF"><circle cx="67.7" cy="29.5" r="1.5" fill="#FFFFFF"></circle></g><g fill="#FFFFFF"><circle cx="77.3" cy="37.2" r="1.5" fill="#FFFFFF"></circle></g><g fill="#FFFFFF"><circle cx="83.5" cy="28" r="1.5" fill="#FFFFFF"></circle></g><g fill="#FFFFFF"><circle cx="71.1" cy="15.6" r="1.5" fill="#FFFFFF"></circle></g><g fill="#FFFFFF"><circle cx="16.5" cy="13.5" r="1.5" fill="#FFFFFF"></circle></g><g fill="#FFFFFF"><circle cx="56.1" cy="18.2" r="1.5" fill="#FFFFFF"></circle></g><g fill="#FFFFFF"><circle cx="19.5" cy="54.9" r="1.5" fill="#FFFFFF"></circle></g><g fill="#FFFFFF"><circle cx="47.1" cy="84" r="1.5" fill="#FFFFFF"></circle></g><g fill="#FFFFFF"><circle cx="26.8" cy="82.5" r="1.5" fill="#FFFFFF"></circle></g><g fill="#FFFFFF"><circle cx="17.6" cy="68.4" r="1.5" fill="#FFFFFF"></circle></g><g fill="#FFFFFF"><circle cx="39.5" cy="76.8" r="1.5" fill="#FFFFFF"></circle></g><g fill="#FFFFFF"><circle cx="83.5" cy="86.5" r="1.5" fill="#FFFFFF"></circle></g><path d="M33.6,22.8c-3.1,0-5.7,1-7.8,3c-2.1,2-3.1,4.5-3.2,7.5c-0.1,7.3,5.9,17.5,16.5,28.1c7.9,7.9,19.2,17.2,28.1,16.9    c3-0.1,5.5-1.3,7.5-3.6c7-7.9,2.5-19.9-13.3-35.7C50.7,28.4,41,22.8,33.6,22.8z M69.1,69c-1.6,1.9-3.7,2.9-6.2,2.9    c-0.1,0-0.2,0-0.3,0c-6.9,0-15.3-6.9-21.1-12.8C33.3,51,28.9,43.4,28.9,37.7c0-2.5,0.9-4.6,2.6-6.2c5.7-5.4,16-1.7,27.6,9.9    C71.2,53.4,74.6,62.7,69.1,69z" fill="#FFFFFF"></path><path d="M38,30c-2.3,0-4.2,0.7-5.7,2.2c-1.5,1.4-2.3,3.3-2.3,5.5c-0.1,5.4,4.4,12.9,12.2,20.7c5.8,5.8,14.1,12.7,20.7,12.5    c2.2-0.1,4-0.9,5.5-2.6c5.1-5.8,1.8-14.6-9.8-26.2C50.6,34.2,43.4,30,38,30z M62.2,62.1c-1.1,1.2-2.4,1.9-4,1.9    c-0.1,0-0.1,0-0.2,0c-4.4,0-9.7-4.4-13.4-8.1c-5.1-5.1-7.9-10-7.9-13.6c0-1.6,0.6-3,1.7-4c3.6-3.5,10.2-1.2,17.6,6.2    C63.6,52.2,65.7,58.1,62.2,62.1z" fill="#FFFFFF"></path><path d="M29.7,16.2c-3.8,0-7.1,1.2-9.8,3.8c-2.6,2.5-3.9,5.6-3.9,9.4c-0.1,9.1,7.3,21.7,20.4,34.8c9.7,9.7,23.7,21.3,34.8,20.9    c3.7-0.1,6.9-1.6,9.4-4.5c8.6-9.8,3.1-24.7-16.4-44.2C50.9,23.1,38.8,16.2,29.7,16.2z M75.5,75.4c-2.2,2.5-5,3.8-8.2,3.9    c-0.1,0-0.3,0-0.4,0c-9.2,0-20.5-9.3-28.4-17.2C27.5,51.2,21.5,41,21.6,33.3c0-3.3,1.2-6.1,3.5-8.3c7.6-7.3,21.4-2.3,37.1,13.3    C78.3,54.6,82.8,67.1,75.5,75.4z" fill="#FFFFFF"></path><path d="M42.5,37.7c-1.4,0-2.5,0.4-3.5,1.3c-0.9,0.9-1.4,2-1.4,3.3c0,3.3,2.7,8,7.6,12.9c5.2,5.2,9.6,7.9,12.9,7.8    c1.3,0,2.4-0.6,3.3-1.6c3.1-3.6,1-9-6.2-16.2C50.3,40.3,45.9,37.7,42.5,37.7z" fill="#FFFFFF"></path></g></g></g><g id="SvgjsG9077" featurekey="8FbbNb-0" transform="matrix(3.7234200909564055,0,0,3.7234200909564055,75.46807497731706,-17.266053990402963)" fill="#FFFFFF"><path d="M9.02 16.94 l1.48 0 c-0.7 1.9 -2.54 3.26 -4.76 3.26 c-2.82 0 -5.06 -2.26 -5.06 -4.98 c0 -2.78 2.24 -5.04 5.06 -5.04 c2.78 0 5.04 2.2 5.08 4.94 l-8.12 0 c0.08 0.24 0.12 0.5 0.2 0.78 c0.64 2.2 2.16 3.78 3.7 3.78 c1.44 0 2.22 -1.36 2.42 -2.74 z M2.6 14.3 l6.14 0 c-0.68 -2.08 -2.28 -3.4 -3.78 -3.4 c-1.52 0 -2.38 1.46 -2.38 2.96 c0 0.14 0 0.3 0.02 0.44 z M19.796999999999997 11.3 l0 -2.08 c0 -0.98 -0.4 -1.92 -1.08 -2.64 l0 -0.58 l3.26 0 l0 14.02 c-0.64 -0.28 -1.3 -0.42 -1.96 -0.42 c-1.16 0 -2.14 0.62 -3.34 0.62 c-2.8 0 -5.46 -2.26 -5.46 -4.98 c0 -2.78 2.16 -5.04 5.46 -5.04 c1.18 0 2.24 0.44 3.12 1.1 z M17.517 19.7 c1.52 0 2.5 -1.52 2.5 -3.36 c0 -3.06 -2.24 -5.56 -4.16 -5.56 c-1.52 0 -2.36 1.44 -2.36 3.2 c0 0.6 0.1 1.26 0.32 1.94 c0.68 2.2 2.16 3.78 3.7 3.78 z M23.534 15.32 l-0.02 -2.68 c0 -0.42 -0.12 -0.78 -0.34 -1.12 l-0.36 -0.62 l0 -0.56 l3.42 0 l0 0.56 l-0.36 0.56 c-0.24 0.36 -0.46 0.84 -0.46 1.24 l0.1 4.2 c0.04 1.28 1.2 2.14 2.5 2.14 c1.96 0 2.44 -1.32 2.44 -2.6 l0 -3.96 c0 -0.6 -0.26 -1.16 -0.7 -1.54 l0 -0.6 l2.24 0 l0 0.6 l-0.16 0.18 c-0.4 0.4 -0.58 0.9 -0.58 1.44 l0 4.24 c0 0.8 -0.16 3.3 -3.32 3.3 c-2.5 0 -4.36 -0.74 -4.4 -4.78 z  M32.510999999999996 19.18 l0 -1.42 l0.66 0 l0.78 0.84 c0.52 0.56 1.14 0.78 2.02 0.76 c0.8 0 2.02 -0.3 2.02 -1.04 c0 -0.94 -1.82 -2.08 -2.9 -2.72 c-0.94 -0.54 -2.58 -1.48 -2.58 -2.62 c0 -2.18 2.54 -2.72 3.28 -2.72 c0.94 0 1.88 0.22 2.88 0.68 l0 1.38 l-0.72 0 l-0.58 -0.66 c-0.42 -0.48 -1.02 -0.8 -1.68 -0.78 c-0.6 0 -1.72 0.46 -1.72 1.16 c0 0.82 1.94 1.44 3.96 2.82 c1.22 0.82 1.78 1.84 1.78 2.76 c0 1.32 -1.12 2.44 -3.04 2.44 c-2.5 0 -4.16 -0.88 -4.16 -0.88 z M40.967999999999996 16.48 l0 -5.32 l-1.48 0 l0 -0.82 l1.48 0 l0 -3.32 l2.18 -1.04 l0 4.36 l1.44 0 l0 0.82 l-1.44 0 l0 5.2 c0 0.78 0.3 1.46 0.68 1.96 c0.22 0.3 0.48 0.52 0.76 0.68 l0 1.1 c-0.46 -0.02 -0.94 -0.12 -1.44 -0.32 c-1.16 -0.48 -2.18 -1.46 -2.18 -3.3 z M52.88499999999999 16.94 l1.48 0 c-0.7 1.9 -2.54 3.26 -4.76 3.26 c-2.82 0 -5.06 -2.26 -5.06 -4.98 c0 -2.78 2.24 -5.04 5.06 -5.04 c2.78 0 5.04 2.2 5.08 4.94 l-8.12 0 c0.08 0.24 0.12 0.5 0.2 0.78 c0.64 2.2 2.16 3.78 3.7 3.78 c1.44 0 2.22 -1.36 2.42 -2.74 z M46.464999999999996 14.3 l6.14 0 c-0.68 -2.08 -2.28 -3.4 -3.78 -3.4 c-1.52 0 -2.38 1.46 -2.38 2.96 c0 0.14 0 0.3 0.02 0.44 z M54.702 20 l0 -0.54 c0.6 -0.7 0.96 -1.66 0.96 -2.62 l0 -7.66 c0 -0.96 -0.36 -1.9 -0.94 -2.58 l0 -0.6 l2.94 0 l0 10.86 c0 0.94 0.36 1.9 0.98 2.6 l0 0.54 l-3.94 0 z M58.879 20 l0 -0.54 c0.6 -0.7 0.96 -1.66 0.96 -2.62 l0 -7.66 c0 -0.96 -0.36 -1.9 -0.94 -2.58 l0 -0.6 l2.94 0 l0 10.86 c0 0.94 0.36 1.9 0.98 2.6 l0 0.54 l-3.94 0 z M70.95599999999999 20 l-0.54 -0.14 c-0.9 -0.24 -1.88 -0.24 -2.72 0.02 c-0.34 0.1 -0.66 0.12 -0.98 0.12 c-1.96 0 -3.52 -1.54 -3.52 -3.48 c0 -1.9 1.56 -3.46 3.52 -3.46 c0.78 0 1.48 0.24 2.02 0.62 l0 -0.02 s0.16 -2.44 -0.92 -2.74 c-1.12 -0.32 -1.52 0.34 -2.34 1.58 l-1.68 -0.02 c0.52 -1.32 1.54 -2.24 2.98 -2.24 c0.54 0 1.1 0.1 1.64 0.26 c0 0 2.54 0.78 2.54 3.16 l0 6.34 z M64.81599999999999 17.02 c0.46 1.5 1.6 2.56 2.76 2.3 c1.12 -0.26 1.64 -1.72 1.18 -3.28 c-0.44 -1.48 -1.74 -2.54 -2.86 -2.26 c-1.14 0.28 -1.54 1.72 -1.08 3.24 z M71.713 20 l0 -0.5 c0.68 -0.74 1.02 -1.66 1.02 -2.66 l0 -3.3 c0 -0.98 -0.34 -1.92 -1.02 -2.62 l0 -0.58 l3.22 0 l0 1.04 c0.62 -0.62 1.8 -1.1 2.62 -1.1 c0.86 0 1.46 0.32 1.46 0.32 l-0.42 1.82 s-0.9 -0.74 -2 -0.74 c-1.46 0 -1.66 0.98 -1.66 1.24 l0 3.92 c0 1 0.38 1.92 1.02 2.66 l0 0.5 l-4.24 0 z" fill="#FFFFFF"></path></g></svg>